<svg xmlns="http://www.w3.org/2000/svg" viewBox="0 0 1500 420" role="img" aria-labelledby="title">
  <title id="title">Tiny Internet logo</title>
  <svg x="22" y="22" width="376" height="376" viewBox="0 0 1024 1024">
    <defs><clipPath id="p"><circle cx="512" cy="512" r="416"/></clipPath></defs>
    <circle cx="512" cy="512" r="468" fill="#FFFBEB" stroke="#FDE9BD" stroke-width="56"/>
    <g clip-path="url(#p)"><rect x="96" y="96" width="832" height="832" fill="#E0F2FE"/><path d="M38 828C133 650 300 574 512 574s379 76 474 254v196H38z" fill="#0284C7"/><path d="M392 565v170h240V565L512 458z" fill="#FFFBEB"/><path d="M370 570l142-126 142 126" fill="none" stroke="#0284C7" stroke-width="48" stroke-linecap="round" stroke-linejoin="round"/><path d="M489 735v-88a35 35 0 0 1 70 0v88z" fill="#1E293B" opacity=".72"/><rect x="690" y="488" width="48" height="224" rx="24" fill="#1E293B"/><circle cx="714" cy="454" r="92" fill="#34D399"/><circle cx="654" cy="478" r="66" fill="#34D399"/><circle cx="772" cy="484" r="68" fill="#34D399"/></g>
  </svg>
  <text x="446" y="274" fill="#1E293B" font-family="'SF Pro Rounded','Arial Rounded MT Bold','Nunito Sans',sans-serif" font-size="166" font-weight="700" letter-spacing="-5">Tiny Internet</text>
</svg>
